<svg width="50" height="50" viewBox="0 0 50 50" fill="none" xmlns="http://www.w3.org/2000/svg">
<circle cx="25" cy="25" r="25" fill="black"/>
<path d="M27.8059 30.6943L27.7597 29.9458L27.8059 30.6943ZM22.3327 20.8244L22.2762 21.5723C22.4795 21.5877 22.6803 21.5196 22.8323 21.3838C22.9844 21.2479 23.0746 21.056 23.0822 20.8523L22.3327 20.8244ZM31.5254 27.3716L32.264 27.5015L31.5254 27.3716ZM27.8059 30.6943L27.7597 29.9458C26.1685 30.0438 24.5344 30.2341 22.9356 30.0486C21.3752 29.8676 19.933 29.3326 18.7594 28.0189L18.2001 28.5185L17.6408 29.0182C19.1263 30.6811 20.9523 31.3286 22.7627 31.5386C24.5347 31.7442 26.3739 31.534 27.852 31.4429L27.8059 30.6943ZM18.2001 28.5185L18.7594 28.0189C17.6168 26.7398 17.3858 25.0269 17.9646 23.7058C18.5225 22.4323 19.8968 21.3926 22.2762 21.5723L22.3327 20.8244L22.3892 20.0766C19.4577 19.8552 17.4361 21.1741 16.5907 23.1038C15.7661 24.9859 16.1242 27.3206 17.6408 29.0182L18.2001 28.5185ZM27.8059 30.6943L27.852 31.4429C28.3848 31.4101 28.9662 31.3726 29.4961 31.265C30.0257 31.1575 30.5862 30.9652 31.0342 30.565L30.5346 30.0057L30.0349 29.4464C29.8709 29.5929 29.6086 29.7116 29.1976 29.795C28.7869 29.8784 28.3101 29.9118 27.7597 29.9458L27.8059 30.6943ZM31.5254 27.3716L32.264 27.5015C32.5206 26.043 32.936 24.239 32.9307 22.4552C32.9254 20.6326 32.4871 18.7454 31.0016 17.0825L30.4422 17.5822L29.8829 18.0818C31.0566 19.3956 31.4261 20.8887 31.4307 22.4596C31.4355 24.0691 31.0629 25.6715 30.7867 27.2417L31.5254 27.3716ZM30.4422 17.5822L31.0016 17.0825C29.4851 15.3849 27.2054 14.7668 25.2426 15.3748C23.2301 15.9981 21.6924 17.8588 21.5832 20.7966L22.3327 20.8244L23.0822 20.8523C23.1708 18.4678 24.3584 17.219 25.6864 16.8076C27.0641 16.3809 28.7403 16.8028 29.8829 18.0818L30.4422 17.5822ZM31.5254 27.3716L30.7867 27.2417C30.6912 27.7847 30.6044 28.2548 30.4754 28.6535C30.3464 29.0525 30.199 29.2998 30.0349 29.4464L30.5346 30.0057L31.0342 30.565C31.4823 30.1647 31.7363 29.6293 31.9026 29.1152C32.069 28.6007 32.1716 28.0272 32.264 27.5015L31.5254 27.3716Z" fill="white"/>
</svg>
